<?xml version="1.0" encoding="utf-8"?>
<!-- Generator: Adobe Illustrator 26.5.0, SVG Export Plug-In . SVG Version: 6.00 Build 0)  -->
<svg version="1.1" id="Layer_1" xmlns="http://www.w3.org/2000/svg" xmlns:xlink="http://www.w3.org/1999/xlink" x="0px" y="0px"
	 viewBox="0 0 612 792" style="enable-background:new 0 0 612 792;" xml:space="preserve">
<path d="M482.5,212h-353c-17.4,0-31.5-14.1-31.5-31.5v-45c0-17.4,14.1-31.5,31.5-31.5h353c17.4,0,31.5,14.1,31.5,31.5v45
	C514,197.9,499.9,212,482.5,212z"/>
<path d="M482.5,364h-353c-17.4,0-31.5-14.1-31.5-31.5v-45c0-17.4,14.1-31.5,31.5-31.5h353c17.4,0,31.5,14.1,31.5,31.5v45
	C514,349.9,499.9,364,482.5,364z"/>
<path d="M482.5,516h-353c-17.4,0-31.5-14.1-31.5-31.5v-45c0-17.4,14.1-31.5,31.5-31.5h353c17.4,0,31.5,14.1,31.5,31.5v45
	C514,501.9,499.9,516,482.5,516z"/>
</svg>
